<!DOCTYPE svg PUBLIC "-//W3C//DTD SVG 1.1//EN" "http://www.w3.org/Graphics/SVG/1.1/DTD/svg11.dtd">
<!-- Uploaded to: SVG Repo, www.svgrepo.com, Transformed by: SVG Repo Mixer Tools -->
<svg fill="#1d6a8b" width="800px" height="800px" viewBox="0 0 24 24" id="medical-receipt" data-name="Flat Color" xmlns="http://www.w3.org/2000/svg" class="icon flat-color" stroke="#1d6a8b">
<g id="SVGRepo_bgCarrier" stroke-width="0"/>
<g id="SVGRepo_tracerCarrier" stroke-linecap="round" stroke-linejoin="round"/>
<g id="SVGRepo_iconCarrier">
<rect id="primary" x="4" y="4" width="16" height="18" rx="2" style="fill: #7f7a7a;"/>
<path id="secondary" d="M12,17a1,1,0,0,1-1-1V15H10a1,1,0,0,1,0-2h1V12a1,1,0,0,1,2,0v1h1a1,1,0,0,1,0,2H13v1A1,1,0,0,1,12,17ZM14,2H10A2,2,0,0,0,8,4V5A1,1,0,0,0,9,6h6a1,1,0,0,0,1-1V4A2,2,0,0,0,14,2Z" style="fill: #2ca9bc;"/>
</g>
</svg>